<mxfile host="app.diagrams.net" modified="2023-05-28T15:42:03.250Z" agent="Mozilla/5.0 (Windows NT 10.0; Win64; x64) AppleWebKit/537.36 (KHTML, like Gecko) Chrome/113.0.0.0 Safari/537.36" etag="uw42gxFqrM9ldH9_mlXt" version="21.3.5" type="github">
  <diagram name="Page-1" id="V92ixg-0RAFTT22dOkgu">
    <mxGraphModel dx="1027" dy="570" grid="1" gridSize="10" guides="1" tooltips="1" connect="1" arrows="1" fold="1" page="1" pageScale="1" pageWidth="850" pageHeight="1100" math="0" shadow="0">
      <root>
        <mxCell id="0" />
        <mxCell id="1" parent="0" />
        <mxCell id="yO1S-MYi9vA0boYuNNXx-58" value="Trips Lifecycle" style="whiteSpace=wrap;html=1;aspect=fixed;fontFamily=Verdana;fontSize=10;shadow=1;strokeColor=#808080;" vertex="1" parent="1">
          <mxGeometry x="403" y="387" width="59" height="59" as="geometry" />
        </mxCell>
        <mxCell id="yO1S-MYi9vA0boYuNNXx-18" value="" style="rounded=1;whiteSpace=wrap;html=1;fontFamily=Architects Daughter;fontSource=https%3A%2F%2Ffonts.googleapis.com%2Fcss%3Ffamily%3DArchitects%2BDaughter;fillColor=#dae8fc;sketch=1;curveFitting=1;jiggle=2;strokeColor=#6c8ebf;" vertex="1" parent="1">
          <mxGeometry x="677.13" y="219" width="195.75" height="83" as="geometry" />
        </mxCell>
        <mxCell id="yO1S-MYi9vA0boYuNNXx-19" value="BPM" style="text;html=1;strokeColor=none;fillColor=none;align=center;verticalAlign=middle;whiteSpace=wrap;rounded=0;horizontal=1;fontStyle=1;fontFamily=Architects Daughter;fontSource=https%3A%2F%2Ffonts.googleapis.com%2Fcss%3Ffamily%3DArchitects%2BDaughter;" vertex="1" parent="1">
          <mxGeometry x="687.13" y="219" width="20" height="30" as="geometry" />
        </mxCell>
        <mxCell id="yO1S-MYi9vA0boYuNNXx-15" value="" style="rounded=1;whiteSpace=wrap;html=1;fontFamily=Verdana;fillColor=#dae8fc;strokeColor=#808080;glass=0;sketch=1;curveFitting=1;jiggle=2;" vertex="1" parent="1">
          <mxGeometry x="402.38" y="553" width="185.75" height="77" as="geometry" />
        </mxCell>
        <mxCell id="XAgePhCk2vM__aNo4kLR-15" style="edgeStyle=orthogonalEdgeStyle;rounded=0;orthogonalLoop=1;jettySize=auto;html=1;exitX=1;exitY=0.5;exitDx=0;exitDy=0;fontSize=10;fontFamily=Architects Daughter;fontSource=https%3A%2F%2Ffonts.googleapis.com%2Fcss%3Ffamily%3DArchitects%2BDaughter;" parent="1" source="XAgePhCk2vM__aNo4kLR-14" edge="1">
          <mxGeometry relative="1" as="geometry">
            <mxPoint x="190" y="372" as="targetPoint" />
          </mxGeometry>
        </mxCell>
        <mxCell id="XAgePhCk2vM__aNo4kLR-14" value="" style="rounded=1;whiteSpace=wrap;html=1;dashed=1;dashPattern=8 8;fontFamily=Architects Daughter;fontSource=https%3A%2F%2Ffonts.googleapis.com%2Fcss%3Ffamily%3DArchitects%2BDaughter;" parent="1" vertex="1">
          <mxGeometry x="20" y="247" width="130" height="250" as="geometry" />
        </mxCell>
        <mxCell id="XAgePhCk2vM__aNo4kLR-3" value="Customer" style="shape=umlActor;verticalLabelPosition=bottom;verticalAlign=top;html=1;outlineConnect=0;fontFamily=Architects Daughter;fontSource=https%3A%2F%2Ffonts.googleapis.com%2Fcss%3Ffamily%3DArchitects%2BDaughter;fontSize=10;" parent="1" vertex="1">
          <mxGeometry x="40" y="287" width="20" height="40" as="geometry" />
        </mxCell>
        <mxCell id="XAgePhCk2vM__aNo4kLR-16" value="" style="edgeStyle=orthogonalEdgeStyle;rounded=0;orthogonalLoop=1;jettySize=auto;html=1;strokeColor=default;endArrow=none;endFill=0;fontSize=10;fontFamily=Architects Daughter;fontSource=https%3A%2F%2Ffonts.googleapis.com%2Fcss%3Ffamily%3DArchitects%2BDaughter;" parent="1" source="XAgePhCk2vM__aNo4kLR-4" target="XAgePhCk2vM__aNo4kLR-5" edge="1">
          <mxGeometry relative="1" as="geometry" />
        </mxCell>
        <mxCell id="XAgePhCk2vM__aNo4kLR-4" value="" style="html=1;verticalLabelPosition=bottom;align=center;labelBackgroundColor=#ffffff;verticalAlign=top;strokeWidth=2;strokeColor=#0080F0;shadow=0;dashed=0;shape=mxgraph.ios7.icons.smartphone;fontSize=10;fontFamily=Architects Daughter;fontSource=https%3A%2F%2Ffonts.googleapis.com%2Fcss%3Ffamily%3DArchitects%2BDaughter;" parent="1" vertex="1">
          <mxGeometry x="186" y="327" width="18" height="30" as="geometry" />
        </mxCell>
        <mxCell id="XAgePhCk2vM__aNo4kLR-5" value="" style="image;sketch=0;aspect=fixed;html=1;points=[];align=center;fontSize=10;image=img/lib/mscae/Managed_Desktop.svg;fontFamily=Architects Daughter;fontSource=https%3A%2F%2Ffonts.googleapis.com%2Fcss%3Ffamily%3DArchitects%2BDaughter;" parent="1" vertex="1">
          <mxGeometry x="170" y="407" width="50" height="36" as="geometry" />
        </mxCell>
        <mxCell id="XAgePhCk2vM__aNo4kLR-9" value="Driver" style="shape=umlActor;verticalLabelPosition=bottom;verticalAlign=top;html=1;outlineConnect=0;fontFamily=Architects Daughter;fontSource=https%3A%2F%2Ffonts.googleapis.com%2Fcss%3Ffamily%3DArchitects%2BDaughter;fontSize=10;" parent="1" vertex="1">
          <mxGeometry x="40" y="377" width="20" height="40" as="geometry" />
        </mxCell>
        <mxCell id="XAgePhCk2vM__aNo4kLR-11" value="Fleet Owner" style="shape=umlActor;verticalLabelPosition=bottom;verticalAlign=top;html=1;outlineConnect=0;fontFamily=Architects Daughter;fontSource=https%3A%2F%2Ffonts.googleapis.com%2Fcss%3Ffamily%3DArchitects%2BDaughter;fontSize=10;" parent="1" vertex="1">
          <mxGeometry x="100" y="317" width="20" height="40" as="geometry" />
        </mxCell>
        <mxCell id="XAgePhCk2vM__aNo4kLR-12" value="Passenger" style="shape=umlActor;verticalLabelPosition=bottom;verticalAlign=top;html=1;outlineConnect=0;fontFamily=Architects Daughter;fontSource=https%3A%2F%2Ffonts.googleapis.com%2Fcss%3Ffamily%3DArchitects%2BDaughter;fontSize=10;" parent="1" vertex="1">
          <mxGeometry x="100" y="407" width="20" height="40" as="geometry" />
        </mxCell>
        <mxCell id="XAgePhCk2vM__aNo4kLR-17" value="API Gateway" style="rounded=0;whiteSpace=wrap;html=1;horizontal=0;verticalAlign=middle;fontFamily=Architects Daughter;fontSource=https%3A%2F%2Ffonts.googleapis.com%2Fcss%3Ffamily%3DArchitects%2BDaughter;fontStyle=0;fontSize=11;" parent="1" vertex="1">
          <mxGeometry x="230" y="246.75" width="40" height="263.25" as="geometry" />
        </mxCell>
        <mxCell id="yO1S-MYi9vA0boYuNNXx-43" value="" style="edgeStyle=orthogonalEdgeStyle;rounded=0;orthogonalLoop=1;jettySize=auto;html=1;" edge="1" parent="1" source="XAgePhCk2vM__aNo4kLR-18">
          <mxGeometry relative="1" as="geometry">
            <mxPoint x="400" y="449.75" as="targetPoint" />
          </mxGeometry>
        </mxCell>
        <mxCell id="XAgePhCk2vM__aNo4kLR-18" value="REST APIs" style="whiteSpace=wrap;html=1;aspect=fixed;fontFamily=Architects Daughter;fontSource=https%3A%2F%2Ffonts.googleapis.com%2Fcss%3Ffamily%3DArchitects%2BDaughter;fontSize=11;strokeColor=default;" parent="1" vertex="1">
          <mxGeometry x="298.62" y="424.75" width="50" height="50" as="geometry" />
        </mxCell>
        <mxCell id="yO1S-MYi9vA0boYuNNXx-27" style="edgeStyle=orthogonalEdgeStyle;rounded=0;orthogonalLoop=1;jettySize=auto;html=1;strokeColor=default;" edge="1" parent="1" source="XAgePhCk2vM__aNo4kLR-20" target="XAgePhCk2vM__aNo4kLR-21">
          <mxGeometry relative="1" as="geometry" />
        </mxCell>
        <mxCell id="XAgePhCk2vM__aNo4kLR-20" value="Kafka API" style="whiteSpace=wrap;html=1;aspect=fixed;fontFamily=Architects Daughter;fontSource=https%3A%2F%2Ffonts.googleapis.com%2Fcss%3Ffamily%3DArchitects%2BDaughter;fontSize=11;strokeColor=default;" parent="1" vertex="1">
          <mxGeometry x="298.62" y="321" width="50" height="50" as="geometry" />
        </mxCell>
        <mxCell id="yO1S-MYi9vA0boYuNNXx-8" style="edgeStyle=orthogonalEdgeStyle;rounded=0;orthogonalLoop=1;jettySize=auto;html=1;exitX=0;exitY=0.5;exitDx=0;exitDy=0;exitPerimeter=0;endArrow=none;endFill=0;fontFamily=Architects Daughter;fontSource=https%3A%2F%2Ffonts.googleapis.com%2Fcss%3Ffamily%3DArchitects%2BDaughter;strokeColor=default;" edge="1" parent="1" source="XAgePhCk2vM__aNo4kLR-21">
          <mxGeometry relative="1" as="geometry">
            <mxPoint x="470" y="310" as="targetPoint" />
          </mxGeometry>
        </mxCell>
        <mxCell id="XAgePhCk2vM__aNo4kLR-21" value="Kafka" style="shape=cylinder3;whiteSpace=wrap;html=1;boundedLbl=1;backgroundOutline=1;size=15;direction=south;fontFamily=Architects Daughter;fontSource=https%3A%2F%2Ffonts.googleapis.com%2Fcss%3Ffamily%3DArchitects%2BDaughter;strokeColor=default;" parent="1" vertex="1">
          <mxGeometry x="405" y="324" width="130" height="45" as="geometry" />
        </mxCell>
        <mxCell id="XAgePhCk2vM__aNo4kLR-27" value="Customer Metadata" style="whiteSpace=wrap;html=1;aspect=fixed;fontFamily=Verdana;fontSize=10;fontStyle=0;shadow=1;strokeColor=#808080;" parent="1" vertex="1">
          <mxGeometry x="566.38" y="388.75" width="61.25" height="61.25" as="geometry" />
        </mxCell>
        <mxCell id="XAgePhCk2vM__aNo4kLR-31" value="Fleet Operators Repository" style="whiteSpace=wrap;html=1;aspect=fixed;fontFamily=Verdana;fontSize=10;shadow=1;strokeColor=#808080;" parent="1" vertex="1">
          <mxGeometry x="640.63" y="389.25" width="60.75" height="60.75" as="geometry" />
        </mxCell>
        <mxCell id="XAgePhCk2vM__aNo4kLR-35" value="Drivers Repository" style="whiteSpace=wrap;html=1;aspect=fixed;fontFamily=Verdana;fontSize=10;shadow=1;strokeColor=#808080;" parent="1" vertex="1">
          <mxGeometry x="716.38" y="388.75" width="60.75" height="60.75" as="geometry" />
        </mxCell>
        <mxCell id="XAgePhCk2vM__aNo4kLR-42" value="Passenger Experience" style="whiteSpace=wrap;html=1;aspect=fixed;fontFamily=Verdana;fontSize=10;shadow=1;strokeColor=#808080;" parent="1" vertex="1">
          <mxGeometry x="390" y="229" width="60" height="60" as="geometry" />
        </mxCell>
        <mxCell id="XAgePhCk2vM__aNo4kLR-46" value="Driver Experience" style="whiteSpace=wrap;html=1;aspect=fixed;fontFamily=Verdana;fontSize=10;shadow=1;strokeColor=#808080;" parent="1" vertex="1">
          <mxGeometry x="459" y="229" width="60" height="60" as="geometry" />
        </mxCell>
        <mxCell id="XAgePhCk2vM__aNo4kLR-50" value="Customer Experience" style="whiteSpace=wrap;html=1;aspect=fixed;fontFamily=Verdana;fontSize=10;shadow=1;strokeColor=#808080;" parent="1" vertex="1">
          <mxGeometry x="529" y="229" width="60" height="60" as="geometry" />
        </mxCell>
        <mxCell id="yO1S-MYi9vA0boYuNNXx-57" style="edgeStyle=orthogonalEdgeStyle;rounded=0;orthogonalLoop=1;jettySize=auto;html=1;exitX=1;exitY=0.5;exitDx=0;exitDy=0;entryX=0;entryY=0.5;entryDx=0;entryDy=0;endArrow=none;endFill=0;" edge="1" parent="1" source="XAgePhCk2vM__aNo4kLR-54" target="yO1S-MYi9vA0boYuNNXx-56">
          <mxGeometry relative="1" as="geometry" />
        </mxCell>
        <mxCell id="XAgePhCk2vM__aNo4kLR-54" value="Trips Lifecycle" style="whiteSpace=wrap;html=1;aspect=fixed;fontFamily=Verdana;fontSize=10;shadow=1;strokeColor=#808080;" parent="1" vertex="1">
          <mxGeometry x="406" y="391" width="59" height="59" as="geometry" />
        </mxCell>
        <mxCell id="XAgePhCk2vM__aNo4kLR-55" value="Fleet Owner Experience" style="whiteSpace=wrap;html=1;aspect=fixed;fontFamily=Verdana;fontSize=10;shadow=1;strokeColor=#808080;" parent="1" vertex="1">
          <mxGeometry x="599" y="229" width="60" height="60" as="geometry" />
        </mxCell>
        <mxCell id="yO1S-MYi9vA0boYuNNXx-32" style="edgeStyle=orthogonalEdgeStyle;rounded=0;orthogonalLoop=1;jettySize=auto;html=1;exitX=0;exitY=0.5;exitDx=0;exitDy=0;entryX=1;entryY=0.5;entryDx=0;entryDy=0;endArrow=none;endFill=0;strokeColor=#808080;fontFamily=Verdana;fontSize=10;" edge="1" parent="1" source="XAgePhCk2vM__aNo4kLR-57" target="yO1S-MYi9vA0boYuNNXx-31">
          <mxGeometry relative="1" as="geometry" />
        </mxCell>
        <mxCell id="XAgePhCk2vM__aNo4kLR-57" value="Payment Schedule" style="whiteSpace=wrap;html=1;aspect=fixed;fontFamily=Verdana;fontSize=10;shadow=1;strokeColor=#808080;" parent="1" vertex="1">
          <mxGeometry x="792.13" y="230.5" width="60" height="60" as="geometry" />
        </mxCell>
        <mxCell id="XAgePhCk2vM__aNo4kLR-58" value="Trip Schedule Mgmt." style="whiteSpace=wrap;html=1;aspect=fixed;fontFamily=Verdana;fontSize=10;shadow=1;strokeColor=#808080;" parent="1" vertex="1">
          <mxGeometry x="518.13" y="560" width="60.75" height="60.75" as="geometry" />
        </mxCell>
        <mxCell id="yO1S-MYi9vA0boYuNNXx-6" value="" style="endArrow=none;html=1;rounded=0;fontFamily=Architects Daughter;fontSource=https%3A%2F%2Ffonts.googleapis.com%2Fcss%3Ffamily%3DArchitects%2BDaughter;strokeColor=default;" edge="1" parent="1">
          <mxGeometry width="50" height="50" relative="1" as="geometry">
            <mxPoint x="427.13" y="309" as="sourcePoint" />
            <mxPoint x="917.13" y="309" as="targetPoint" />
          </mxGeometry>
        </mxCell>
        <mxCell id="yO1S-MYi9vA0boYuNNXx-9" style="edgeStyle=orthogonalEdgeStyle;rounded=0;orthogonalLoop=1;jettySize=auto;html=1;exitX=0;exitY=0.5;exitDx=0;exitDy=0;exitPerimeter=0;endArrow=none;endFill=0;fontFamily=Architects Daughter;fontSource=https%3A%2F%2Ffonts.googleapis.com%2Fcss%3Ffamily%3DArchitects%2BDaughter;strokeColor=default;" edge="1" parent="1">
          <mxGeometry relative="1" as="geometry">
            <mxPoint x="430" y="290" as="targetPoint" />
            <mxPoint x="430" y="310" as="sourcePoint" />
            <Array as="points">
              <mxPoint x="430" y="298" />
              <mxPoint x="430" y="298" />
            </Array>
          </mxGeometry>
        </mxCell>
        <mxCell id="yO1S-MYi9vA0boYuNNXx-10" style="edgeStyle=orthogonalEdgeStyle;rounded=0;orthogonalLoop=1;jettySize=auto;html=1;exitX=0;exitY=0.5;exitDx=0;exitDy=0;exitPerimeter=0;endArrow=none;endFill=0;fontFamily=Architects Daughter;fontSource=https%3A%2F%2Ffonts.googleapis.com%2Fcss%3Ffamily%3DArchitects%2BDaughter;strokeColor=default;" edge="1" parent="1">
          <mxGeometry relative="1" as="geometry">
            <mxPoint x="488" y="290" as="targetPoint" />
            <mxPoint x="488" y="310" as="sourcePoint" />
            <Array as="points">
              <mxPoint x="488" y="298" />
              <mxPoint x="488" y="298" />
            </Array>
          </mxGeometry>
        </mxCell>
        <mxCell id="yO1S-MYi9vA0boYuNNXx-11" style="edgeStyle=orthogonalEdgeStyle;rounded=0;orthogonalLoop=1;jettySize=auto;html=1;exitX=0;exitY=0.5;exitDx=0;exitDy=0;exitPerimeter=0;endArrow=none;endFill=0;fontFamily=Architects Daughter;fontSource=https%3A%2F%2Ffonts.googleapis.com%2Fcss%3Ffamily%3DArchitects%2BDaughter;strokeColor=default;" edge="1" parent="1">
          <mxGeometry relative="1" as="geometry">
            <mxPoint x="557" y="290" as="targetPoint" />
            <mxPoint x="557" y="310" as="sourcePoint" />
            <Array as="points">
              <mxPoint x="557" y="298" />
              <mxPoint x="557" y="298" />
            </Array>
          </mxGeometry>
        </mxCell>
        <mxCell id="yO1S-MYi9vA0boYuNNXx-12" style="edgeStyle=orthogonalEdgeStyle;rounded=0;orthogonalLoop=1;jettySize=auto;html=1;exitX=0;exitY=0.5;exitDx=0;exitDy=0;exitPerimeter=0;endArrow=none;endFill=0;fontFamily=Architects Daughter;fontSource=https%3A%2F%2Ffonts.googleapis.com%2Fcss%3Ffamily%3DArchitects%2BDaughter;strokeColor=default;" edge="1" parent="1">
          <mxGeometry relative="1" as="geometry">
            <mxPoint x="629" y="289" as="targetPoint" />
            <mxPoint x="629" y="309" as="sourcePoint" />
            <Array as="points">
              <mxPoint x="629" y="297" />
              <mxPoint x="629" y="297" />
            </Array>
          </mxGeometry>
        </mxCell>
        <mxCell id="yO1S-MYi9vA0boYuNNXx-13" style="edgeStyle=orthogonalEdgeStyle;rounded=0;orthogonalLoop=1;jettySize=auto;html=1;exitX=0;exitY=0.5;exitDx=0;exitDy=0;exitPerimeter=0;endArrow=none;endFill=0;fontFamily=Architects Daughter;fontSource=https%3A%2F%2Ffonts.googleapis.com%2Fcss%3Ffamily%3DArchitects%2BDaughter;strokeColor=default;" edge="1" parent="1">
          <mxGeometry relative="1" as="geometry">
            <mxPoint x="818.13" y="290.5" as="targetPoint" />
            <mxPoint x="818.13" y="310.5" as="sourcePoint" />
            <Array as="points">
              <mxPoint x="818.13" y="298.5" />
              <mxPoint x="818.13" y="298.5" />
            </Array>
          </mxGeometry>
        </mxCell>
        <mxCell id="yO1S-MYi9vA0boYuNNXx-16" value="BPM" style="text;html=1;strokeColor=none;fillColor=none;align=center;verticalAlign=middle;whiteSpace=wrap;rounded=0;horizontal=1;fontStyle=1;fontFamily=Architects Daughter;fontSource=https%3A%2F%2Ffonts.googleapis.com%2Fcss%3Ffamily%3DArchitects%2BDaughter;" vertex="1" parent="1">
          <mxGeometry x="460" y="550" width="20" height="30" as="geometry" />
        </mxCell>
        <mxCell id="yO1S-MYi9vA0boYuNNXx-17" value="Service Contract /Order Mgmt." style="rounded=0;whiteSpace=wrap;html=1;fontFamily=Verdana;shadow=1;strokeColor=#808080;fontSize=10;" vertex="1" parent="1">
          <mxGeometry x="408.13" y="582" width="100" height="38.5" as="geometry" />
        </mxCell>
        <mxCell id="yO1S-MYi9vA0boYuNNXx-46" style="edgeStyle=orthogonalEdgeStyle;rounded=0;orthogonalLoop=1;jettySize=auto;html=1;exitX=0.5;exitY=0;exitDx=0;exitDy=0;entryX=0.5;entryY=1;entryDx=0;entryDy=0;" edge="1" parent="1" source="yO1S-MYi9vA0boYuNNXx-29" target="yO1S-MYi9vA0boYuNNXx-45">
          <mxGeometry relative="1" as="geometry" />
        </mxCell>
        <mxCell id="yO1S-MYi9vA0boYuNNXx-29" value="Spark Streaming" style="whiteSpace=wrap;html=1;aspect=fixed;fontFamily=Verdana;fontSize=10;fontStyle=0;shadow=1;" vertex="1" parent="1">
          <mxGeometry x="887.13" y="229" width="60" height="60" as="geometry" />
        </mxCell>
        <mxCell id="yO1S-MYi9vA0boYuNNXx-31" value="Invoicing" style="whiteSpace=wrap;html=1;aspect=fixed;fontFamily=Verdana;fontSize=10;shadow=1;strokeColor=#808080;" vertex="1" parent="1">
          <mxGeometry x="717.13" y="230.5" width="60" height="60" as="geometry" />
        </mxCell>
        <mxCell id="yO1S-MYi9vA0boYuNNXx-37" value="NoSQL" style="shape=cylinder3;whiteSpace=wrap;html=1;boundedLbl=1;backgroundOutline=1;size=6.498497009277344;fontFamily=Verdana;fontSize=9;shadow=1;strokeColor=#666666;fillColor=#f5f5f5;fontColor=#333333;" vertex="1" parent="1">
          <mxGeometry x="366.63" y="80" width="35.75" height="40" as="geometry" />
        </mxCell>
        <mxCell id="yO1S-MYi9vA0boYuNNXx-38" value="NoSQL" style="shape=cylinder3;whiteSpace=wrap;html=1;boundedLbl=1;backgroundOutline=1;size=6.498497009277344;fontFamily=Verdana;fontSize=9;shadow=1;strokeColor=#666666;fillColor=#f5f5f5;fontColor=#333333;" vertex="1" parent="1">
          <mxGeometry x="435.63" y="80" width="35.75" height="40" as="geometry" />
        </mxCell>
        <mxCell id="yO1S-MYi9vA0boYuNNXx-39" value="NoSQL" style="shape=cylinder3;whiteSpace=wrap;html=1;boundedLbl=1;backgroundOutline=1;size=6.498497009277344;fontFamily=Verdana;fontSize=9;shadow=1;strokeColor=#666666;fillColor=#f5f5f5;fontColor=#333333;" vertex="1" parent="1">
          <mxGeometry x="505.63" y="80" width="35.75" height="40" as="geometry" />
        </mxCell>
        <mxCell id="yO1S-MYi9vA0boYuNNXx-40" value="NoSQL" style="shape=cylinder3;whiteSpace=wrap;html=1;boundedLbl=1;backgroundOutline=1;size=6.498497009277344;fontFamily=Verdana;fontSize=9;shadow=1;strokeColor=#666666;fillColor=#f5f5f5;fontColor=#333333;" vertex="1" parent="1">
          <mxGeometry x="575.63" y="80" width="35.75" height="40" as="geometry" />
        </mxCell>
        <mxCell id="yO1S-MYi9vA0boYuNNXx-41" style="edgeStyle=orthogonalEdgeStyle;rounded=0;orthogonalLoop=1;jettySize=auto;html=1;exitX=0;exitY=0.5;exitDx=0;exitDy=0;exitPerimeter=0;endArrow=none;endFill=0;fontFamily=Architects Daughter;fontSource=https%3A%2F%2Ffonts.googleapis.com%2Fcss%3Ffamily%3DArchitects%2BDaughter;strokeColor=default;" edge="1" parent="1">
          <mxGeometry relative="1" as="geometry">
            <mxPoint x="916.13" y="291" as="targetPoint" />
            <mxPoint x="916.13" y="311" as="sourcePoint" />
            <Array as="points">
              <mxPoint x="916.13" y="299" />
              <mxPoint x="916.13" y="299" />
            </Array>
          </mxGeometry>
        </mxCell>
        <mxCell id="yO1S-MYi9vA0boYuNNXx-48" style="edgeStyle=orthogonalEdgeStyle;rounded=0;orthogonalLoop=1;jettySize=auto;html=1;exitX=1;exitY=0.5;exitDx=0;exitDy=0;startArrow=classic;startFill=1;" edge="1" parent="1" source="yO1S-MYi9vA0boYuNNXx-42">
          <mxGeometry relative="1" as="geometry">
            <mxPoint x="380" y="272" as="targetPoint" />
          </mxGeometry>
        </mxCell>
        <mxCell id="yO1S-MYi9vA0boYuNNXx-42" value="Web Sockets Node" style="rounded=0;whiteSpace=wrap;html=1;fontFamily=Architects Daughter;fontSource=https%3A%2F%2Ffonts.googleapis.com%2Fcss%3Ffamily%3DArchitects%2BDaughter;" vertex="1" parent="1">
          <mxGeometry x="298.62" y="247" width="51.38" height="50" as="geometry" />
        </mxCell>
        <mxCell id="yO1S-MYi9vA0boYuNNXx-45" value="" style="shape=image;html=1;verticalAlign=top;verticalLabelPosition=bottom;labelBackgroundColor=#ffffff;imageAspect=0;aspect=fixed;image=https://cdn3.iconfinder.com/data/icons/user-interface-169/32/dashboard-128.png;imageBorder=default;" vertex="1" parent="1">
          <mxGeometry x="887.13" y="160" width="50.88" height="50.88" as="geometry" />
        </mxCell>
        <mxCell id="yO1S-MYi9vA0boYuNNXx-47" value="Dashboards" style="text;html=1;align=center;verticalAlign=middle;resizable=0;points=[];autosize=1;strokeColor=none;fillColor=none;fontFamily=Architects Daughter;fontSource=https%3A%2F%2Ffonts.googleapis.com%2Fcss%3Ffamily%3DArchitects%2BDaughter;" vertex="1" parent="1">
          <mxGeometry x="867.57" y="130" width="90" height="30" as="geometry" />
        </mxCell>
        <mxCell id="yO1S-MYi9vA0boYuNNXx-49" value="Service Catalogue" style="whiteSpace=wrap;html=1;aspect=fixed;fontFamily=Verdana;fontSize=10;fontStyle=0;shadow=1;strokeColor=#808080;" vertex="1" parent="1">
          <mxGeometry x="402.38" y="474.75" width="61.25" height="61.25" as="geometry" />
        </mxCell>
        <mxCell id="yO1S-MYi9vA0boYuNNXx-54" value="" style="shape=cylinder3;whiteSpace=wrap;html=1;boundedLbl=1;backgroundOutline=1;size=6.498497009277344;fontFamily=Verdana;fontSize=9;shadow=1;strokeColor=#666666;fillColor=#f5f5f5;fontColor=#333333;" vertex="1" parent="1">
          <mxGeometry x="406" y="374" width="21" height="30" as="geometry" />
        </mxCell>
        <mxCell id="yO1S-MYi9vA0boYuNNXx-55" value="" style="shape=cylinder3;whiteSpace=wrap;html=1;boundedLbl=1;backgroundOutline=1;size=6.498497009277344;fontFamily=Verdana;fontSize=9;shadow=1;strokeColor=#666666;fillColor=#f5f5f5;fontColor=#333333;" vertex="1" parent="1">
          <mxGeometry x="406" y="553" width="21" height="30" as="geometry" />
        </mxCell>
        <mxCell id="yO1S-MYi9vA0boYuNNXx-56" value="Trip Payment Calculation Service" style="whiteSpace=wrap;html=1;aspect=fixed;fontFamily=Verdana;fontSize=10;shadow=1;strokeColor=#808080;" vertex="1" parent="1">
          <mxGeometry x="490" y="391" width="59" height="59" as="geometry" />
        </mxCell>
        <mxCell id="yO1S-MYi9vA0boYuNNXx-59" value="Trip Payment Calculation Service" style="whiteSpace=wrap;html=1;aspect=fixed;fontFamily=Verdana;fontSize=10;shadow=1;strokeColor=#808080;" vertex="1" parent="1">
          <mxGeometry x="493" y="395" width="59" height="59" as="geometry" />
        </mxCell>
        <mxCell id="yO1S-MYi9vA0boYuNNXx-60" value="Customer Metadata" style="whiteSpace=wrap;html=1;aspect=fixed;fontFamily=Verdana;fontSize=10;fontStyle=0;shadow=1;strokeColor=#808080;" vertex="1" parent="1">
          <mxGeometry x="569.38" y="391.75" width="61.25" height="61.25" as="geometry" />
        </mxCell>
        <mxCell id="yO1S-MYi9vA0boYuNNXx-53" value="" style="shape=cylinder3;whiteSpace=wrap;html=1;boundedLbl=1;backgroundOutline=1;size=6.498497009277344;fontFamily=Verdana;fontSize=9;shadow=1;strokeColor=#666666;fillColor=#f5f5f5;fontColor=#333333;" vertex="1" parent="1">
          <mxGeometry x="566.38" y="374" width="21" height="30" as="geometry" />
        </mxCell>
        <mxCell id="yO1S-MYi9vA0boYuNNXx-61" value="Fleet Operators Repository" style="whiteSpace=wrap;html=1;aspect=fixed;fontFamily=Verdana;fontSize=10;shadow=1;strokeColor=#808080;" vertex="1" parent="1">
          <mxGeometry x="643.63" y="392.25" width="60.75" height="60.75" as="geometry" />
        </mxCell>
        <mxCell id="yO1S-MYi9vA0boYuNNXx-51" value="" style="shape=cylinder3;whiteSpace=wrap;html=1;boundedLbl=1;backgroundOutline=1;size=6.498497009277344;fontFamily=Verdana;fontSize=9;shadow=1;strokeColor=#666666;fillColor=#f5f5f5;fontColor=#333333;" vertex="1" parent="1">
          <mxGeometry x="639.01" y="374" width="21" height="30" as="geometry" />
        </mxCell>
        <mxCell id="yO1S-MYi9vA0boYuNNXx-62" value="Drivers Repository" style="whiteSpace=wrap;html=1;aspect=fixed;fontFamily=Verdana;fontSize=10;shadow=1;strokeColor=#808080;" vertex="1" parent="1">
          <mxGeometry x="719.38" y="391.75" width="60.75" height="60.75" as="geometry" />
        </mxCell>
        <mxCell id="yO1S-MYi9vA0boYuNNXx-52" value="" style="shape=cylinder3;whiteSpace=wrap;html=1;boundedLbl=1;backgroundOutline=1;size=6.498497009277344;fontFamily=Verdana;fontSize=9;shadow=1;strokeColor=#666666;fillColor=#f5f5f5;fontColor=#333333;" vertex="1" parent="1">
          <mxGeometry x="716.38" y="374" width="21" height="30" as="geometry" />
        </mxCell>
        <mxCell id="yO1S-MYi9vA0boYuNNXx-63" value="Service Catalogue" style="whiteSpace=wrap;html=1;aspect=fixed;fontFamily=Verdana;fontSize=10;fontStyle=0;shadow=1;strokeColor=#808080;" vertex="1" parent="1">
          <mxGeometry x="405.38" y="477.75" width="61.25" height="61.25" as="geometry" />
        </mxCell>
        <mxCell id="yO1S-MYi9vA0boYuNNXx-50" value="" style="shape=cylinder3;whiteSpace=wrap;html=1;boundedLbl=1;backgroundOutline=1;size=6.498497009277344;fontFamily=Verdana;fontSize=9;shadow=1;strokeColor=#666666;fillColor=#f5f5f5;fontColor=#333333;" vertex="1" parent="1">
          <mxGeometry x="402.38" y="460" width="21" height="30" as="geometry" />
        </mxCell>
      </root>
    </mxGraphModel>
  </diagram>
</mxfile>
